<mxfile host="app.diagrams.net" modified="2023-12-14T11:13:28.736Z" agent="Mozilla/5.0 (Windows NT 10.0; Win64; x64) AppleWebKit/537.36 (KHTML, like Gecko) Chrome/120.0.0.0 Safari/537.36" version="22.1.8" etag="WjcJlVO7proI-fuVvf0u" type="github">
  <diagram name="StrÃ¡nka-1" id="4MiJn1jdnojwYLKKx3TC">
    <mxGraphModel>
      <root>
        <mxCell id="0" />
        <mxCell id="1" parent="0" />
      </root>
    </mxGraphModel>
  </diagram>
</mxfile>
